<svg width="20" height="20" viewBox="0 0 20 20" fill="none" xmlns="http://www.w3.org/2000/svg">
<path d="M10.33 10.15L7.85999 12.62C7.53435 12.9447 7.27599 13.3305 7.0997 13.7552C6.92341 14.1799 6.83266 14.6352 6.83266 15.095C6.83266 15.5549 6.92341 16.0102 7.0997 16.4349C7.27599 16.8596 7.53435 17.2454 7.85999 17.57C8.18467 17.8957 8.57041 18.154 8.99512 18.3303C9.41983 18.5066 9.87515 18.5974 10.335 18.5974C10.7948 18.5974 11.2502 18.5066 11.6749 18.3303C12.0996 18.154 12.4853 17.8957 12.81 17.57L16.7 13.68C18.0112 12.3663 18.7476 10.5861 18.7476 8.73003C18.7476 6.87396 18.0112 5.09372 16.7 3.78003C15.3863 2.46884 13.6061 1.73242 11.75 1.73242C9.89392 1.73242 8.11368 2.46884 6.79999 3.78003L2.55999 8.02003C0.219993 10.36 0.219993 14.16 2.55999 16.51" stroke="white" stroke-width="1.5" stroke-linecap="round" stroke-linejoin="round"/>
</svg>
